<mxfile host="app.diagrams.net" modified="2024-02-20T08:41:52.961Z" agent="Mozilla/5.0 (X11; Linux x86_64) AppleWebKit/537.36 (KHTML, like Gecko) Chrome/120.0.0.0 Safari/537.36" etag="mVGHBaNufRLyBpUzJvaI" version="23.1.5" type="device">
  <diagram name="PÃ¡gina-1" id="5ZHzQBcMurLJta8UicB2">
    <mxGraphModel dx="939" dy="547" grid="1" gridSize="10" guides="1" tooltips="1" connect="1" arrows="1" fold="1" page="1" pageScale="1" pageWidth="827" pageHeight="1169" math="0" shadow="0">
      <root>
        <mxCell id="0" />
        <mxCell id="1" parent="0" />
        <mxCell id="Q6NoitaBViCfW9eb-oas-90" value="" style="group" parent="1" vertex="1" connectable="0">
          <mxGeometry x="370" y="300" width="200" height="200" as="geometry" />
        </mxCell>
        <mxCell id="Q6NoitaBViCfW9eb-oas-36" value="" style="shape=table;startSize=0;container=1;collapsible=0;childLayout=tableLayout;" parent="Q6NoitaBViCfW9eb-oas-90" vertex="1">
          <mxGeometry width="200" height="200" as="geometry" />
        </mxCell>
        <mxCell id="Q6NoitaBViCfW9eb-oas-37" value="" style="shape=tableRow;horizontal=0;startSize=0;swimlaneHead=0;swimlaneBody=0;strokeColor=inherit;top=0;left=0;bottom=0;right=0;collapsible=0;dropTarget=0;fillColor=none;points=[[0,0.5],[1,0.5]];portConstraint=eastwest;" parent="Q6NoitaBViCfW9eb-oas-36" vertex="1">
          <mxGeometry width="200" height="40" as="geometry" />
        </mxCell>
        <mxCell id="Q6NoitaBViCfW9eb-oas-38" value="" style="shape=partialRectangle;html=1;whiteSpace=wrap;connectable=0;strokeColor=inherit;overflow=hidden;fillColor=none;top=0;left=0;bottom=0;right=0;pointerEvents=1;" parent="Q6NoitaBViCfW9eb-oas-37" vertex="1">
          <mxGeometry width="40" height="40" as="geometry">
            <mxRectangle width="40" height="40" as="alternateBounds" />
          </mxGeometry>
        </mxCell>
        <mxCell id="Q6NoitaBViCfW9eb-oas-39" value="" style="shape=partialRectangle;html=1;whiteSpace=wrap;connectable=0;strokeColor=inherit;overflow=hidden;fillColor=none;top=0;left=0;bottom=0;right=0;pointerEvents=1;" parent="Q6NoitaBViCfW9eb-oas-37" vertex="1">
          <mxGeometry x="40" width="40" height="40" as="geometry">
            <mxRectangle width="40" height="40" as="alternateBounds" />
          </mxGeometry>
        </mxCell>
        <mxCell id="Q6NoitaBViCfW9eb-oas-40" value="" style="shape=partialRectangle;html=1;whiteSpace=wrap;connectable=0;strokeColor=inherit;overflow=hidden;fillColor=none;top=0;left=0;bottom=0;right=0;pointerEvents=1;" parent="Q6NoitaBViCfW9eb-oas-37" vertex="1">
          <mxGeometry x="80" width="40" height="40" as="geometry">
            <mxRectangle width="40" height="40" as="alternateBounds" />
          </mxGeometry>
        </mxCell>
        <mxCell id="Q6NoitaBViCfW9eb-oas-41" value="" style="shape=partialRectangle;html=1;whiteSpace=wrap;connectable=0;strokeColor=inherit;overflow=hidden;fillColor=none;top=0;left=0;bottom=0;right=0;pointerEvents=1;" parent="Q6NoitaBViCfW9eb-oas-37" vertex="1">
          <mxGeometry x="120" width="40" height="40" as="geometry">
            <mxRectangle width="40" height="40" as="alternateBounds" />
          </mxGeometry>
        </mxCell>
        <mxCell id="Q6NoitaBViCfW9eb-oas-42" value="" style="shape=partialRectangle;html=1;whiteSpace=wrap;connectable=0;strokeColor=inherit;overflow=hidden;fillColor=none;top=0;left=0;bottom=0;right=0;pointerEvents=1;" parent="Q6NoitaBViCfW9eb-oas-37" vertex="1">
          <mxGeometry x="160" width="40" height="40" as="geometry">
            <mxRectangle width="40" height="40" as="alternateBounds" />
          </mxGeometry>
        </mxCell>
        <mxCell id="Q6NoitaBViCfW9eb-oas-43" value="" style="shape=tableRow;horizontal=0;startSize=0;swimlaneHead=0;swimlaneBody=0;strokeColor=inherit;top=0;left=0;bottom=0;right=0;collapsible=0;dropTarget=0;fillColor=none;points=[[0,0.5],[1,0.5]];portConstraint=eastwest;" parent="Q6NoitaBViCfW9eb-oas-36" vertex="1">
          <mxGeometry y="40" width="200" height="40" as="geometry" />
        </mxCell>
        <mxCell id="Q6NoitaBViCfW9eb-oas-44" value="" style="shape=partialRectangle;html=1;whiteSpace=wrap;connectable=0;strokeColor=inherit;overflow=hidden;fillColor=none;top=0;left=0;bottom=0;right=0;pointerEvents=1;" parent="Q6NoitaBViCfW9eb-oas-43" vertex="1">
          <mxGeometry width="40" height="40" as="geometry">
            <mxRectangle width="40" height="40" as="alternateBounds" />
          </mxGeometry>
        </mxCell>
        <mxCell id="Q6NoitaBViCfW9eb-oas-45" value="" style="shape=partialRectangle;html=1;whiteSpace=wrap;connectable=0;strokeColor=inherit;overflow=hidden;fillColor=#000000;top=0;left=0;bottom=0;right=0;pointerEvents=1;fillStyle=hatch;" parent="Q6NoitaBViCfW9eb-oas-43" vertex="1">
          <mxGeometry x="40" width="40" height="40" as="geometry">
            <mxRectangle width="40" height="40" as="alternateBounds" />
          </mxGeometry>
        </mxCell>
        <mxCell id="Q6NoitaBViCfW9eb-oas-46" value="" style="shape=partialRectangle;html=1;whiteSpace=wrap;connectable=0;strokeColor=inherit;overflow=hidden;fillColor=#000000;top=0;left=0;bottom=0;right=0;pointerEvents=1;fillStyle=hatch;" parent="Q6NoitaBViCfW9eb-oas-43" vertex="1">
          <mxGeometry x="80" width="40" height="40" as="geometry">
            <mxRectangle width="40" height="40" as="alternateBounds" />
          </mxGeometry>
        </mxCell>
        <mxCell id="Q6NoitaBViCfW9eb-oas-47" value="" style="shape=partialRectangle;html=1;whiteSpace=wrap;connectable=0;strokeColor=inherit;overflow=hidden;fillColor=#000000;top=0;left=0;bottom=0;right=0;pointerEvents=1;fillStyle=hatch;" parent="Q6NoitaBViCfW9eb-oas-43" vertex="1">
          <mxGeometry x="120" width="40" height="40" as="geometry">
            <mxRectangle width="40" height="40" as="alternateBounds" />
          </mxGeometry>
        </mxCell>
        <mxCell id="Q6NoitaBViCfW9eb-oas-48" value="" style="shape=partialRectangle;html=1;whiteSpace=wrap;connectable=0;strokeColor=inherit;overflow=hidden;fillColor=none;top=0;left=0;bottom=0;right=0;pointerEvents=1;" parent="Q6NoitaBViCfW9eb-oas-43" vertex="1">
          <mxGeometry x="160" width="40" height="40" as="geometry">
            <mxRectangle width="40" height="40" as="alternateBounds" />
          </mxGeometry>
        </mxCell>
        <mxCell id="Q6NoitaBViCfW9eb-oas-49" value="" style="shape=tableRow;horizontal=0;startSize=0;swimlaneHead=0;swimlaneBody=0;strokeColor=inherit;top=0;left=0;bottom=0;right=0;collapsible=0;dropTarget=0;fillColor=none;points=[[0,0.5],[1,0.5]];portConstraint=eastwest;" parent="Q6NoitaBViCfW9eb-oas-36" vertex="1">
          <mxGeometry y="80" width="200" height="40" as="geometry" />
        </mxCell>
        <mxCell id="Q6NoitaBViCfW9eb-oas-50" value="" style="shape=partialRectangle;html=1;whiteSpace=wrap;connectable=0;strokeColor=inherit;overflow=hidden;fillColor=none;top=0;left=0;bottom=0;right=0;pointerEvents=1;" parent="Q6NoitaBViCfW9eb-oas-49" vertex="1">
          <mxGeometry width="40" height="40" as="geometry">
            <mxRectangle width="40" height="40" as="alternateBounds" />
          </mxGeometry>
        </mxCell>
        <mxCell id="Q6NoitaBViCfW9eb-oas-51" value="" style="shape=partialRectangle;html=1;whiteSpace=wrap;connectable=0;strokeColor=inherit;overflow=hidden;fillColor=#000000;top=0;left=0;bottom=0;right=0;pointerEvents=1;fillStyle=hatch;" parent="Q6NoitaBViCfW9eb-oas-49" vertex="1">
          <mxGeometry x="40" width="40" height="40" as="geometry">
            <mxRectangle width="40" height="40" as="alternateBounds" />
          </mxGeometry>
        </mxCell>
        <mxCell id="Q6NoitaBViCfW9eb-oas-52" value="" style="shape=partialRectangle;html=1;whiteSpace=wrap;connectable=0;strokeColor=inherit;overflow=hidden;fillColor=none;top=0;left=0;bottom=0;right=0;pointerEvents=1;" parent="Q6NoitaBViCfW9eb-oas-49" vertex="1">
          <mxGeometry x="80" width="40" height="40" as="geometry">
            <mxRectangle width="40" height="40" as="alternateBounds" />
          </mxGeometry>
        </mxCell>
        <mxCell id="Q6NoitaBViCfW9eb-oas-53" value="" style="shape=partialRectangle;html=1;whiteSpace=wrap;connectable=0;strokeColor=inherit;overflow=hidden;fillColor=#000000;top=0;left=0;bottom=0;right=0;pointerEvents=1;fillStyle=hatch;" parent="Q6NoitaBViCfW9eb-oas-49" vertex="1">
          <mxGeometry x="120" width="40" height="40" as="geometry">
            <mxRectangle width="40" height="40" as="alternateBounds" />
          </mxGeometry>
        </mxCell>
        <mxCell id="Q6NoitaBViCfW9eb-oas-54" value="" style="shape=partialRectangle;html=1;whiteSpace=wrap;connectable=0;strokeColor=inherit;overflow=hidden;fillColor=none;top=0;left=0;bottom=0;right=0;pointerEvents=1;" parent="Q6NoitaBViCfW9eb-oas-49" vertex="1">
          <mxGeometry x="160" width="40" height="40" as="geometry">
            <mxRectangle width="40" height="40" as="alternateBounds" />
          </mxGeometry>
        </mxCell>
        <mxCell id="Q6NoitaBViCfW9eb-oas-55" value="" style="shape=tableRow;horizontal=0;startSize=0;swimlaneHead=0;swimlaneBody=0;strokeColor=inherit;top=0;left=0;bottom=0;right=0;collapsible=0;dropTarget=0;fillColor=none;points=[[0,0.5],[1,0.5]];portConstraint=eastwest;" parent="Q6NoitaBViCfW9eb-oas-36" vertex="1">
          <mxGeometry y="120" width="200" height="40" as="geometry" />
        </mxCell>
        <mxCell id="Q6NoitaBViCfW9eb-oas-56" value="" style="shape=partialRectangle;html=1;whiteSpace=wrap;connectable=0;strokeColor=inherit;overflow=hidden;fillColor=none;top=0;left=0;bottom=0;right=0;pointerEvents=1;" parent="Q6NoitaBViCfW9eb-oas-55" vertex="1">
          <mxGeometry width="40" height="40" as="geometry">
            <mxRectangle width="40" height="40" as="alternateBounds" />
          </mxGeometry>
        </mxCell>
        <mxCell id="Q6NoitaBViCfW9eb-oas-57" value="" style="shape=partialRectangle;html=1;whiteSpace=wrap;connectable=0;strokeColor=inherit;overflow=hidden;fillColor=#000000;top=0;left=0;bottom=0;right=0;pointerEvents=1;fillStyle=hatch;" parent="Q6NoitaBViCfW9eb-oas-55" vertex="1">
          <mxGeometry x="40" width="40" height="40" as="geometry">
            <mxRectangle width="40" height="40" as="alternateBounds" />
          </mxGeometry>
        </mxCell>
        <mxCell id="Q6NoitaBViCfW9eb-oas-58" value="" style="shape=partialRectangle;html=1;whiteSpace=wrap;connectable=0;strokeColor=inherit;overflow=hidden;fillColor=none;top=0;left=0;bottom=0;right=0;pointerEvents=1;" parent="Q6NoitaBViCfW9eb-oas-55" vertex="1">
          <mxGeometry x="80" width="40" height="40" as="geometry">
            <mxRectangle width="40" height="40" as="alternateBounds" />
          </mxGeometry>
        </mxCell>
        <mxCell id="Q6NoitaBViCfW9eb-oas-59" value="" style="shape=partialRectangle;html=1;whiteSpace=wrap;connectable=0;strokeColor=inherit;overflow=hidden;fillColor=none;top=0;left=0;bottom=0;right=0;pointerEvents=1;" parent="Q6NoitaBViCfW9eb-oas-55" vertex="1">
          <mxGeometry x="120" width="40" height="40" as="geometry">
            <mxRectangle width="40" height="40" as="alternateBounds" />
          </mxGeometry>
        </mxCell>
        <mxCell id="Q6NoitaBViCfW9eb-oas-60" value="" style="shape=partialRectangle;html=1;whiteSpace=wrap;connectable=0;strokeColor=inherit;overflow=hidden;fillColor=none;top=0;left=0;bottom=0;right=0;pointerEvents=1;" parent="Q6NoitaBViCfW9eb-oas-55" vertex="1">
          <mxGeometry x="160" width="40" height="40" as="geometry">
            <mxRectangle width="40" height="40" as="alternateBounds" />
          </mxGeometry>
        </mxCell>
        <mxCell id="Q6NoitaBViCfW9eb-oas-61" value="" style="shape=tableRow;horizontal=0;startSize=0;swimlaneHead=0;swimlaneBody=0;strokeColor=inherit;top=0;left=0;bottom=0;right=0;collapsible=0;dropTarget=0;fillColor=none;points=[[0,0.5],[1,0.5]];portConstraint=eastwest;" parent="Q6NoitaBViCfW9eb-oas-36" vertex="1">
          <mxGeometry y="160" width="200" height="40" as="geometry" />
        </mxCell>
        <mxCell id="Q6NoitaBViCfW9eb-oas-62" value="" style="shape=partialRectangle;html=1;whiteSpace=wrap;connectable=0;strokeColor=inherit;overflow=hidden;fillColor=none;top=0;left=0;bottom=0;right=0;pointerEvents=1;" parent="Q6NoitaBViCfW9eb-oas-61" vertex="1">
          <mxGeometry width="40" height="40" as="geometry">
            <mxRectangle width="40" height="40" as="alternateBounds" />
          </mxGeometry>
        </mxCell>
        <mxCell id="Q6NoitaBViCfW9eb-oas-63" value="" style="shape=partialRectangle;html=1;whiteSpace=wrap;connectable=0;strokeColor=inherit;overflow=hidden;fillColor=none;top=0;left=0;bottom=0;right=0;pointerEvents=1;" parent="Q6NoitaBViCfW9eb-oas-61" vertex="1">
          <mxGeometry x="40" width="40" height="40" as="geometry">
            <mxRectangle width="40" height="40" as="alternateBounds" />
          </mxGeometry>
        </mxCell>
        <mxCell id="Q6NoitaBViCfW9eb-oas-64" value="" style="shape=partialRectangle;html=1;whiteSpace=wrap;connectable=0;strokeColor=inherit;overflow=hidden;fillColor=none;top=0;left=0;bottom=0;right=0;pointerEvents=1;" parent="Q6NoitaBViCfW9eb-oas-61" vertex="1">
          <mxGeometry x="80" width="40" height="40" as="geometry">
            <mxRectangle width="40" height="40" as="alternateBounds" />
          </mxGeometry>
        </mxCell>
        <mxCell id="Q6NoitaBViCfW9eb-oas-65" value="" style="shape=partialRectangle;html=1;whiteSpace=wrap;connectable=0;strokeColor=inherit;overflow=hidden;fillColor=none;top=0;left=0;bottom=0;right=0;pointerEvents=1;" parent="Q6NoitaBViCfW9eb-oas-61" vertex="1">
          <mxGeometry x="120" width="40" height="40" as="geometry">
            <mxRectangle width="40" height="40" as="alternateBounds" />
          </mxGeometry>
        </mxCell>
        <mxCell id="Q6NoitaBViCfW9eb-oas-66" value="" style="shape=partialRectangle;html=1;whiteSpace=wrap;connectable=0;strokeColor=inherit;overflow=hidden;fillColor=none;top=0;left=0;bottom=0;right=0;pointerEvents=1;" parent="Q6NoitaBViCfW9eb-oas-61" vertex="1">
          <mxGeometry x="160" width="40" height="40" as="geometry">
            <mxRectangle width="40" height="40" as="alternateBounds" />
          </mxGeometry>
        </mxCell>
        <mxCell id="Q6NoitaBViCfW9eb-oas-67" value="" style="verticalLabelPosition=bottom;verticalAlign=top;html=1;shape=mxgraph.basic.star;fillColor=#FFFF33;" parent="Q6NoitaBViCfW9eb-oas-90" vertex="1">
          <mxGeometry x="10" y="10" width="20" height="20" as="geometry" />
        </mxCell>
        <mxCell id="Q6NoitaBViCfW9eb-oas-72" value="" style="endArrow=classic;html=1;rounded=0;" parent="Q6NoitaBViCfW9eb-oas-90" edge="1">
          <mxGeometry width="50" height="50" relative="1" as="geometry">
            <mxPoint x="70" y="19.71" as="sourcePoint" />
            <mxPoint x="50" y="19.71" as="targetPoint" />
          </mxGeometry>
        </mxCell>
        <mxCell id="Q6NoitaBViCfW9eb-oas-73" value="" style="endArrow=classic;html=1;rounded=0;" parent="Q6NoitaBViCfW9eb-oas-90" edge="1">
          <mxGeometry width="50" height="50" relative="1" as="geometry">
            <mxPoint x="110" y="19.710000000000008" as="sourcePoint" />
            <mxPoint x="90" y="19.710000000000008" as="targetPoint" />
          </mxGeometry>
        </mxCell>
        <mxCell id="Q6NoitaBViCfW9eb-oas-74" value="" style="endArrow=classic;html=1;rounded=0;" parent="Q6NoitaBViCfW9eb-oas-90" edge="1">
          <mxGeometry width="50" height="50" relative="1" as="geometry">
            <mxPoint x="150" y="19.710000000000008" as="sourcePoint" />
            <mxPoint x="130" y="19.710000000000008" as="targetPoint" />
          </mxGeometry>
        </mxCell>
        <mxCell id="Q6NoitaBViCfW9eb-oas-75" value="" style="endArrow=classic;html=1;rounded=0;" parent="Q6NoitaBViCfW9eb-oas-90" edge="1">
          <mxGeometry width="50" height="50" relative="1" as="geometry">
            <mxPoint x="70" y="180" as="sourcePoint" />
            <mxPoint x="50" y="180" as="targetPoint" />
          </mxGeometry>
        </mxCell>
        <mxCell id="Q6NoitaBViCfW9eb-oas-76" value="" style="endArrow=classic;html=1;rounded=0;" parent="Q6NoitaBViCfW9eb-oas-90" edge="1">
          <mxGeometry width="50" height="50" relative="1" as="geometry">
            <mxPoint x="30" y="180" as="sourcePoint" />
            <mxPoint x="10" y="180" as="targetPoint" />
          </mxGeometry>
        </mxCell>
        <mxCell id="Q6NoitaBViCfW9eb-oas-77" value="" style="endArrow=classic;html=1;rounded=0;" parent="Q6NoitaBViCfW9eb-oas-90" edge="1">
          <mxGeometry width="50" height="50" relative="1" as="geometry">
            <mxPoint x="19.70999999999998" y="150" as="sourcePoint" />
            <mxPoint x="19.70999999999998" y="130" as="targetPoint" />
          </mxGeometry>
        </mxCell>
        <mxCell id="Q6NoitaBViCfW9eb-oas-78" value="" style="endArrow=classic;html=1;rounded=0;" parent="Q6NoitaBViCfW9eb-oas-90" edge="1">
          <mxGeometry width="50" height="50" relative="1" as="geometry">
            <mxPoint x="19.70999999999998" y="110" as="sourcePoint" />
            <mxPoint x="19.70999999999998" y="90" as="targetPoint" />
          </mxGeometry>
        </mxCell>
        <mxCell id="Q6NoitaBViCfW9eb-oas-80" value="" style="endArrow=classic;html=1;rounded=0;" parent="Q6NoitaBViCfW9eb-oas-90" edge="1">
          <mxGeometry width="50" height="50" relative="1" as="geometry">
            <mxPoint x="179.99999999999997" y="70" as="sourcePoint" />
            <mxPoint x="179.99999999999997" y="50" as="targetPoint" />
          </mxGeometry>
        </mxCell>
        <mxCell id="Q6NoitaBViCfW9eb-oas-81" value="" style="endArrow=classic;html=1;rounded=0;" parent="Q6NoitaBViCfW9eb-oas-90" edge="1">
          <mxGeometry width="50" height="50" relative="1" as="geometry">
            <mxPoint x="180" y="30" as="sourcePoint" />
            <mxPoint x="180" y="10" as="targetPoint" />
          </mxGeometry>
        </mxCell>
        <mxCell id="Q6NoitaBViCfW9eb-oas-82" value="" style="endArrow=classic;html=1;rounded=0;" parent="Q6NoitaBViCfW9eb-oas-90" edge="1">
          <mxGeometry width="50" height="50" relative="1" as="geometry">
            <mxPoint x="180" y="110" as="sourcePoint" />
            <mxPoint x="180" y="90" as="targetPoint" />
          </mxGeometry>
        </mxCell>
        <mxCell id="Q6NoitaBViCfW9eb-oas-83" value="" style="endArrow=classic;html=1;rounded=0;" parent="Q6NoitaBViCfW9eb-oas-90" edge="1">
          <mxGeometry width="50" height="50" relative="1" as="geometry">
            <mxPoint x="130" y="140" as="sourcePoint" />
            <mxPoint x="150" y="140" as="targetPoint" />
          </mxGeometry>
        </mxCell>
        <mxCell id="Q6NoitaBViCfW9eb-oas-84" value="" style="endArrow=classic;html=1;rounded=0;" parent="Q6NoitaBViCfW9eb-oas-90" edge="1">
          <mxGeometry width="50" height="50" relative="1" as="geometry">
            <mxPoint x="170" y="140" as="sourcePoint" />
            <mxPoint x="190" y="140" as="targetPoint" />
          </mxGeometry>
        </mxCell>
        <mxCell id="Q6NoitaBViCfW9eb-oas-85" value="" style="endArrow=classic;html=1;rounded=0;" parent="Q6NoitaBViCfW9eb-oas-90" edge="1">
          <mxGeometry width="50" height="50" relative="1" as="geometry">
            <mxPoint x="130" y="180" as="sourcePoint" />
            <mxPoint x="150" y="180" as="targetPoint" />
          </mxGeometry>
        </mxCell>
        <mxCell id="Q6NoitaBViCfW9eb-oas-86" value="" style="endArrow=classic;html=1;rounded=0;" parent="Q6NoitaBViCfW9eb-oas-90" edge="1">
          <mxGeometry width="50" height="50" relative="1" as="geometry">
            <mxPoint x="170" y="180" as="sourcePoint" />
            <mxPoint x="190" y="180" as="targetPoint" />
          </mxGeometry>
        </mxCell>
        <mxCell id="Q6NoitaBViCfW9eb-oas-87" value="" style="shape=umlActor;verticalLabelPosition=bottom;verticalAlign=top;html=1;outlineConnect=0;" parent="Q6NoitaBViCfW9eb-oas-90" vertex="1">
          <mxGeometry x="92" y="85" width="16" height="30" as="geometry" />
        </mxCell>
        <mxCell id="Q6NoitaBViCfW9eb-oas-88" value="" style="endArrow=classic;html=1;rounded=0;" parent="Q6NoitaBViCfW9eb-oas-90" edge="1">
          <mxGeometry width="50" height="50" relative="1" as="geometry">
            <mxPoint x="99.71000000000001" y="130" as="sourcePoint" />
            <mxPoint x="99.71000000000001" y="150" as="targetPoint" />
          </mxGeometry>
        </mxCell>
        <mxCell id="Q6NoitaBViCfW9eb-oas-89" value="" style="endArrow=classic;html=1;rounded=0;" parent="Q6NoitaBViCfW9eb-oas-90" edge="1">
          <mxGeometry width="50" height="50" relative="1" as="geometry">
            <mxPoint x="99.71000000000001" y="170" as="sourcePoint" />
            <mxPoint x="99.71000000000001" y="190" as="targetPoint" />
          </mxGeometry>
        </mxCell>
        <mxCell id="QiW56zmOAPl6OWJs4tkQ-106" value="A" style="text;html=1;align=center;verticalAlign=middle;whiteSpace=wrap;rounded=0;" parent="Q6NoitaBViCfW9eb-oas-90" vertex="1">
          <mxGeometry x="30" width="10" height="10" as="geometry" />
        </mxCell>
        <mxCell id="QiW56zmOAPl6OWJs4tkQ-109" value="B" style="text;html=1;align=center;verticalAlign=middle;whiteSpace=wrap;rounded=0;" parent="Q6NoitaBViCfW9eb-oas-90" vertex="1">
          <mxGeometry x="70" width="10" height="10" as="geometry" />
        </mxCell>
        <mxCell id="QiW56zmOAPl6OWJs4tkQ-110" value="C" style="text;html=1;align=center;verticalAlign=middle;whiteSpace=wrap;rounded=0;" parent="Q6NoitaBViCfW9eb-oas-90" vertex="1">
          <mxGeometry x="110" width="10" height="10" as="geometry" />
        </mxCell>
        <mxCell id="QiW56zmOAPl6OWJs4tkQ-111" value="D" style="text;html=1;align=center;verticalAlign=middle;whiteSpace=wrap;rounded=0;" parent="Q6NoitaBViCfW9eb-oas-90" vertex="1">
          <mxGeometry x="150" width="10" height="10" as="geometry" />
        </mxCell>
        <mxCell id="QiW56zmOAPl6OWJs4tkQ-112" value="E" style="text;html=1;align=center;verticalAlign=middle;whiteSpace=wrap;rounded=0;" parent="Q6NoitaBViCfW9eb-oas-90" vertex="1">
          <mxGeometry x="190" width="10" height="10" as="geometry" />
        </mxCell>
        <mxCell id="QiW56zmOAPl6OWJs4tkQ-113" value="F" style="text;html=1;align=center;verticalAlign=middle;whiteSpace=wrap;rounded=0;" parent="Q6NoitaBViCfW9eb-oas-90" vertex="1">
          <mxGeometry x="30" y="40" width="10" height="10" as="geometry" />
        </mxCell>
        <mxCell id="QiW56zmOAPl6OWJs4tkQ-117" value="G" style="text;html=1;align=center;verticalAlign=middle;whiteSpace=wrap;rounded=0;" parent="Q6NoitaBViCfW9eb-oas-90" vertex="1">
          <mxGeometry x="190" y="40" width="10" height="10" as="geometry" />
        </mxCell>
        <mxCell id="QiW56zmOAPl6OWJs4tkQ-118" value="H" style="text;html=1;align=center;verticalAlign=middle;whiteSpace=wrap;rounded=0;" parent="Q6NoitaBViCfW9eb-oas-90" vertex="1">
          <mxGeometry x="30" y="80" width="10" height="10" as="geometry" />
        </mxCell>
        <mxCell id="QiW56zmOAPl6OWJs4tkQ-120" value="I" style="text;html=1;align=center;verticalAlign=middle;whiteSpace=wrap;rounded=0;" parent="Q6NoitaBViCfW9eb-oas-90" vertex="1">
          <mxGeometry x="110" y="80" width="10" height="10" as="geometry" />
        </mxCell>
        <mxCell id="QiW56zmOAPl6OWJs4tkQ-122" value="J" style="text;html=1;align=center;verticalAlign=middle;whiteSpace=wrap;rounded=0;" parent="Q6NoitaBViCfW9eb-oas-90" vertex="1">
          <mxGeometry x="190" y="80" width="10" height="10" as="geometry" />
        </mxCell>
        <mxCell id="QiW56zmOAPl6OWJs4tkQ-123" value="K" style="text;html=1;align=center;verticalAlign=middle;whiteSpace=wrap;rounded=0;" parent="Q6NoitaBViCfW9eb-oas-90" vertex="1">
          <mxGeometry x="30" y="120" width="10" height="10" as="geometry" />
        </mxCell>
        <mxCell id="QiW56zmOAPl6OWJs4tkQ-125" value="L" style="text;html=1;align=center;verticalAlign=middle;whiteSpace=wrap;rounded=0;" parent="Q6NoitaBViCfW9eb-oas-90" vertex="1">
          <mxGeometry x="110" y="120" width="10" height="10" as="geometry" />
        </mxCell>
        <mxCell id="QiW56zmOAPl6OWJs4tkQ-126" value="M" style="text;html=1;align=center;verticalAlign=middle;whiteSpace=wrap;rounded=0;" parent="Q6NoitaBViCfW9eb-oas-90" vertex="1">
          <mxGeometry x="150" y="120" width="10" height="10" as="geometry" />
        </mxCell>
        <mxCell id="QiW56zmOAPl6OWJs4tkQ-127" value="N" style="text;html=1;align=center;verticalAlign=middle;whiteSpace=wrap;rounded=0;" parent="Q6NoitaBViCfW9eb-oas-90" vertex="1">
          <mxGeometry x="190" y="120" width="10" height="10" as="geometry" />
        </mxCell>
        <mxCell id="QiW56zmOAPl6OWJs4tkQ-128" value="O" style="text;html=1;align=center;verticalAlign=middle;whiteSpace=wrap;rounded=0;" parent="Q6NoitaBViCfW9eb-oas-90" vertex="1">
          <mxGeometry x="30" y="160" width="10" height="10" as="geometry" />
        </mxCell>
        <mxCell id="QiW56zmOAPl6OWJs4tkQ-129" value="P" style="text;html=1;align=center;verticalAlign=middle;whiteSpace=wrap;rounded=0;" parent="Q6NoitaBViCfW9eb-oas-90" vertex="1">
          <mxGeometry x="70" y="160" width="10" height="10" as="geometry" />
        </mxCell>
        <mxCell id="QiW56zmOAPl6OWJs4tkQ-130" value="Q" style="text;html=1;align=center;verticalAlign=middle;whiteSpace=wrap;rounded=0;" parent="Q6NoitaBViCfW9eb-oas-90" vertex="1">
          <mxGeometry x="110" y="160" width="10" height="10" as="geometry" />
        </mxCell>
        <mxCell id="QiW56zmOAPl6OWJs4tkQ-131" value="R" style="text;html=1;align=center;verticalAlign=middle;whiteSpace=wrap;rounded=0;" parent="Q6NoitaBViCfW9eb-oas-90" vertex="1">
          <mxGeometry x="150" y="160" width="10" height="10" as="geometry" />
        </mxCell>
        <mxCell id="QiW56zmOAPl6OWJs4tkQ-132" value="S" style="text;html=1;align=center;verticalAlign=middle;whiteSpace=wrap;rounded=0;" parent="Q6NoitaBViCfW9eb-oas-90" vertex="1">
          <mxGeometry x="190" y="160" width="10" height="10" as="geometry" />
        </mxCell>
        <mxCell id="QiW56zmOAPl6OWJs4tkQ-133" value="" style="group;fillColor=none;gradientColor=none;strokeColor=none;perimeterSpacing=0;" parent="1" vertex="1" connectable="0">
          <mxGeometry x="50" y="50" width="300" height="560" as="geometry" />
        </mxCell>
        <mxCell id="QiW56zmOAPl6OWJs4tkQ-135" value="" style="rounded=0;whiteSpace=wrap;html=1;" parent="QiW56zmOAPl6OWJs4tkQ-133" vertex="1">
          <mxGeometry x="-10" y="-10.18181818181818" width="300" height="559.9999999999999" as="geometry" />
        </mxCell>
        <mxCell id="Q6NoitaBViCfW9eb-oas-145" value="" style="rounded=0;whiteSpace=wrap;html=1;container=0;fillColor=#66FF66;" parent="QiW56zmOAPl6OWJs4tkQ-133" vertex="1">
          <mxGeometry x="112.75" width="30" height="30.545454545454543" as="geometry" />
        </mxCell>
        <mxCell id="Q6NoitaBViCfW9eb-oas-146" value="" style="rounded=0;whiteSpace=wrap;html=1;container=0;fillColor=#66FF66;" parent="QiW56zmOAPl6OWJs4tkQ-133" vertex="1">
          <mxGeometry x="112.75" y="50.90909090909091" width="30" height="30.545454545454543" as="geometry" />
        </mxCell>
        <mxCell id="Q6NoitaBViCfW9eb-oas-170" style="edgeStyle=none;rounded=0;orthogonalLoop=1;jettySize=auto;html=1;exitX=0.5;exitY=1;exitDx=0;exitDy=0;entryX=0.5;entryY=0;entryDx=0;entryDy=0;endArrow=none;endFill=0;" parent="QiW56zmOAPl6OWJs4tkQ-133" source="Q6NoitaBViCfW9eb-oas-145" target="Q6NoitaBViCfW9eb-oas-146" edge="1">
          <mxGeometry relative="1" as="geometry" />
        </mxCell>
        <mxCell id="Q6NoitaBViCfW9eb-oas-147" value="" style="rounded=0;whiteSpace=wrap;html=1;container=0;fillColor=#66FF66;" parent="QiW56zmOAPl6OWJs4tkQ-133" vertex="1">
          <mxGeometry x="46" y="101.81818181818181" width="30" height="30.545454545454543" as="geometry" />
        </mxCell>
        <mxCell id="Q6NoitaBViCfW9eb-oas-171" style="edgeStyle=none;rounded=0;orthogonalLoop=1;jettySize=auto;html=1;exitX=0.5;exitY=1;exitDx=0;exitDy=0;entryX=0.5;entryY=0;entryDx=0;entryDy=0;strokeColor=default;curved=0;endArrow=none;endFill=0;" parent="QiW56zmOAPl6OWJs4tkQ-133" source="Q6NoitaBViCfW9eb-oas-146" target="Q6NoitaBViCfW9eb-oas-147" edge="1">
          <mxGeometry relative="1" as="geometry" />
        </mxCell>
        <mxCell id="Q6NoitaBViCfW9eb-oas-148" value="" style="rounded=0;whiteSpace=wrap;html=1;container=0;fillColor=#66FF66;" parent="QiW56zmOAPl6OWJs4tkQ-133" vertex="1">
          <mxGeometry x="179.5" y="101.81818181818181" width="30" height="30.545454545454543" as="geometry" />
        </mxCell>
        <mxCell id="Q6NoitaBViCfW9eb-oas-172" style="edgeStyle=none;rounded=0;orthogonalLoop=1;jettySize=auto;html=1;exitX=0.5;exitY=1;exitDx=0;exitDy=0;entryX=0.5;entryY=0;entryDx=0;entryDy=0;endArrow=none;endFill=0;" parent="QiW56zmOAPl6OWJs4tkQ-133" source="Q6NoitaBViCfW9eb-oas-146" target="Q6NoitaBViCfW9eb-oas-148" edge="1">
          <mxGeometry relative="1" as="geometry" />
        </mxCell>
        <mxCell id="Q6NoitaBViCfW9eb-oas-149" value="" style="rounded=0;whiteSpace=wrap;html=1;container=0;fillColor=#66FF66;" parent="QiW56zmOAPl6OWJs4tkQ-133" vertex="1">
          <mxGeometry x="76" y="203.63636363636363" width="30" height="30.545454545454543" as="geometry" />
        </mxCell>
        <mxCell id="Q6NoitaBViCfW9eb-oas-175" style="edgeStyle=none;rounded=0;orthogonalLoop=1;jettySize=auto;html=1;exitX=0.5;exitY=1;exitDx=0;exitDy=0;entryX=0.5;entryY=0;entryDx=0;entryDy=0;endArrow=none;endFill=0;" parent="QiW56zmOAPl6OWJs4tkQ-133" source="Q6NoitaBViCfW9eb-oas-150" target="Q6NoitaBViCfW9eb-oas-149" edge="1">
          <mxGeometry relative="1" as="geometry" />
        </mxCell>
        <mxCell id="Q6NoitaBViCfW9eb-oas-150" value="" style="rounded=0;whiteSpace=wrap;html=1;container=0;fillColor=#66FF66;" parent="QiW56zmOAPl6OWJs4tkQ-133" vertex="1">
          <mxGeometry x="76" y="152.72727272727272" width="30" height="30.545454545454543" as="geometry" />
        </mxCell>
        <mxCell id="Q6NoitaBViCfW9eb-oas-174" style="edgeStyle=none;rounded=0;orthogonalLoop=1;jettySize=auto;html=1;exitX=0.5;exitY=1;exitDx=0;exitDy=0;entryX=0.5;entryY=0;entryDx=0;entryDy=0;endArrow=none;endFill=0;" parent="QiW56zmOAPl6OWJs4tkQ-133" source="Q6NoitaBViCfW9eb-oas-147" target="Q6NoitaBViCfW9eb-oas-150" edge="1">
          <mxGeometry relative="1" as="geometry" />
        </mxCell>
        <mxCell id="Q6NoitaBViCfW9eb-oas-152" value="" style="rounded=0;whiteSpace=wrap;html=1;container=0;fillColor=#66FF66;" parent="QiW56zmOAPl6OWJs4tkQ-133" vertex="1">
          <mxGeometry x="16" y="152.72727272727272" width="30" height="30.545454545454543" as="geometry" />
        </mxCell>
        <mxCell id="Q6NoitaBViCfW9eb-oas-173" style="edgeStyle=none;rounded=0;orthogonalLoop=1;jettySize=auto;html=1;exitX=0.5;exitY=1;exitDx=0;exitDy=0;entryX=0.5;entryY=0;entryDx=0;entryDy=0;endArrow=none;endFill=0;" parent="QiW56zmOAPl6OWJs4tkQ-133" source="Q6NoitaBViCfW9eb-oas-147" target="Q6NoitaBViCfW9eb-oas-152" edge="1">
          <mxGeometry relative="1" as="geometry" />
        </mxCell>
        <mxCell id="Q6NoitaBViCfW9eb-oas-153" value="" style="rounded=0;whiteSpace=wrap;html=1;container=0;fillColor=#66FF66;" parent="QiW56zmOAPl6OWJs4tkQ-133" vertex="1">
          <mxGeometry x="16" y="203.63636363636363" width="30" height="30.545454545454543" as="geometry" />
        </mxCell>
        <mxCell id="Q6NoitaBViCfW9eb-oas-176" style="edgeStyle=none;rounded=0;orthogonalLoop=1;jettySize=auto;html=1;exitX=0.5;exitY=1;exitDx=0;exitDy=0;entryX=0.5;entryY=0;entryDx=0;entryDy=0;endArrow=none;endFill=0;" parent="QiW56zmOAPl6OWJs4tkQ-133" source="Q6NoitaBViCfW9eb-oas-152" target="Q6NoitaBViCfW9eb-oas-153" edge="1">
          <mxGeometry relative="1" as="geometry" />
        </mxCell>
        <mxCell id="Q6NoitaBViCfW9eb-oas-154" value="" style="rounded=0;whiteSpace=wrap;html=1;container=0;fillColor=#66FF66;" parent="QiW56zmOAPl6OWJs4tkQ-133" vertex="1">
          <mxGeometry x="16" y="254.54545454545453" width="30" height="30.545454545454543" as="geometry" />
        </mxCell>
        <mxCell id="Q6NoitaBViCfW9eb-oas-177" style="edgeStyle=none;rounded=0;orthogonalLoop=1;jettySize=auto;html=1;exitX=0.5;exitY=1;exitDx=0;exitDy=0;entryX=0.5;entryY=0;entryDx=0;entryDy=0;endArrow=none;endFill=0;" parent="QiW56zmOAPl6OWJs4tkQ-133" source="Q6NoitaBViCfW9eb-oas-153" target="Q6NoitaBViCfW9eb-oas-154" edge="1">
          <mxGeometry relative="1" as="geometry" />
        </mxCell>
        <mxCell id="Q6NoitaBViCfW9eb-oas-155" value="" style="rounded=0;whiteSpace=wrap;html=1;container=0;fillColor=#66FF66;" parent="QiW56zmOAPl6OWJs4tkQ-133" vertex="1">
          <mxGeometry x="16" y="305.45454545454544" width="30" height="30.545454545454543" as="geometry" />
        </mxCell>
        <mxCell id="Q6NoitaBViCfW9eb-oas-178" style="edgeStyle=none;rounded=0;orthogonalLoop=1;jettySize=auto;html=1;exitX=0.5;exitY=1;exitDx=0;exitDy=0;entryX=0.5;entryY=0;entryDx=0;entryDy=0;endArrow=none;endFill=0;" parent="QiW56zmOAPl6OWJs4tkQ-133" source="Q6NoitaBViCfW9eb-oas-154" target="Q6NoitaBViCfW9eb-oas-155" edge="1">
          <mxGeometry relative="1" as="geometry" />
        </mxCell>
        <mxCell id="Q6NoitaBViCfW9eb-oas-156" value="" style="rounded=0;whiteSpace=wrap;html=1;container=0;fillColor=#FFFFFF;" parent="QiW56zmOAPl6OWJs4tkQ-133" vertex="1">
          <mxGeometry x="16" y="356.3636363636363" width="30" height="30.545454545454543" as="geometry" />
        </mxCell>
        <mxCell id="Q6NoitaBViCfW9eb-oas-179" style="edgeStyle=none;rounded=0;orthogonalLoop=1;jettySize=auto;html=1;exitX=0.5;exitY=1;exitDx=0;exitDy=0;entryX=0.5;entryY=0;entryDx=0;entryDy=0;endArrow=none;endFill=0;" parent="QiW56zmOAPl6OWJs4tkQ-133" source="Q6NoitaBViCfW9eb-oas-155" target="Q6NoitaBViCfW9eb-oas-156" edge="1">
          <mxGeometry relative="1" as="geometry" />
        </mxCell>
        <mxCell id="Q6NoitaBViCfW9eb-oas-157" value="" style="rounded=0;whiteSpace=wrap;html=1;container=0;fillColor=#FFFFFF;" parent="QiW56zmOAPl6OWJs4tkQ-133" vertex="1">
          <mxGeometry x="149.5" y="152.72727272727272" width="30" height="30.545454545454543" as="geometry" />
        </mxCell>
        <mxCell id="Q6NoitaBViCfW9eb-oas-180" style="edgeStyle=none;rounded=0;orthogonalLoop=1;jettySize=auto;html=1;exitX=0.5;exitY=1;exitDx=0;exitDy=0;entryX=0.5;entryY=0;entryDx=0;entryDy=0;endArrow=none;endFill=0;" parent="QiW56zmOAPl6OWJs4tkQ-133" source="Q6NoitaBViCfW9eb-oas-148" target="Q6NoitaBViCfW9eb-oas-157" edge="1">
          <mxGeometry relative="1" as="geometry" />
        </mxCell>
        <mxCell id="Q6NoitaBViCfW9eb-oas-158" value="" style="rounded=0;whiteSpace=wrap;html=1;container=0;fillColor=#66FF66;" parent="QiW56zmOAPl6OWJs4tkQ-133" vertex="1">
          <mxGeometry x="209.5" y="152.72727272727272" width="30" height="30.545454545454543" as="geometry" />
        </mxCell>
        <mxCell id="Q6NoitaBViCfW9eb-oas-181" style="edgeStyle=none;rounded=0;orthogonalLoop=1;jettySize=auto;html=1;exitX=0.5;exitY=1;exitDx=0;exitDy=0;entryX=0.5;entryY=0;entryDx=0;entryDy=0;endArrow=none;endFill=0;" parent="QiW56zmOAPl6OWJs4tkQ-133" source="Q6NoitaBViCfW9eb-oas-148" target="Q6NoitaBViCfW9eb-oas-158" edge="1">
          <mxGeometry relative="1" as="geometry" />
        </mxCell>
        <mxCell id="Q6NoitaBViCfW9eb-oas-159" value="" style="rounded=0;whiteSpace=wrap;html=1;container=0;fillColor=#FFFFFF;" parent="QiW56zmOAPl6OWJs4tkQ-133" vertex="1">
          <mxGeometry x="179.5" y="203.63636363636363" width="30" height="30.545454545454543" as="geometry" />
        </mxCell>
        <mxCell id="Q6NoitaBViCfW9eb-oas-182" style="edgeStyle=none;rounded=0;orthogonalLoop=1;jettySize=auto;html=1;exitX=0.5;exitY=1;exitDx=0;exitDy=0;entryX=0.5;entryY=0;entryDx=0;entryDy=0;endArrow=none;endFill=0;" parent="QiW56zmOAPl6OWJs4tkQ-133" source="Q6NoitaBViCfW9eb-oas-158" target="Q6NoitaBViCfW9eb-oas-159" edge="1">
          <mxGeometry relative="1" as="geometry" />
        </mxCell>
        <mxCell id="Q6NoitaBViCfW9eb-oas-160" value="" style="rounded=0;whiteSpace=wrap;html=1;container=0;fillColor=#66FF66;" parent="QiW56zmOAPl6OWJs4tkQ-133" vertex="1">
          <mxGeometry x="239.5" y="203.63636363636363" width="30" height="30.545454545454543" as="geometry" />
        </mxCell>
        <mxCell id="Q6NoitaBViCfW9eb-oas-183" style="edgeStyle=none;rounded=0;orthogonalLoop=1;jettySize=auto;html=1;exitX=0.5;exitY=1;exitDx=0;exitDy=0;entryX=0.5;entryY=0;entryDx=0;entryDy=0;endArrow=none;endFill=0;" parent="QiW56zmOAPl6OWJs4tkQ-133" source="Q6NoitaBViCfW9eb-oas-158" target="Q6NoitaBViCfW9eb-oas-160" edge="1">
          <mxGeometry relative="1" as="geometry" />
        </mxCell>
        <mxCell id="Q6NoitaBViCfW9eb-oas-161" value="" style="rounded=0;whiteSpace=wrap;html=1;container=0;fillColor=#66FF66;" parent="QiW56zmOAPl6OWJs4tkQ-133" vertex="1">
          <mxGeometry x="239.5" y="254.54545454545453" width="30" height="30.545454545454543" as="geometry" />
        </mxCell>
        <mxCell id="Q6NoitaBViCfW9eb-oas-184" style="edgeStyle=none;rounded=0;orthogonalLoop=1;jettySize=auto;html=1;exitX=0.5;exitY=1;exitDx=0;exitDy=0;entryX=0.5;entryY=0;entryDx=0;entryDy=0;endArrow=none;endFill=0;" parent="QiW56zmOAPl6OWJs4tkQ-133" source="Q6NoitaBViCfW9eb-oas-160" target="Q6NoitaBViCfW9eb-oas-161" edge="1">
          <mxGeometry relative="1" as="geometry" />
        </mxCell>
        <mxCell id="Q6NoitaBViCfW9eb-oas-162" value="" style="rounded=0;whiteSpace=wrap;html=1;container=0;fillColor=#66FF66;" parent="QiW56zmOAPl6OWJs4tkQ-133" vertex="1">
          <mxGeometry x="239.5" y="305.45454545454544" width="30" height="30.545454545454543" as="geometry" />
        </mxCell>
        <mxCell id="Q6NoitaBViCfW9eb-oas-185" style="edgeStyle=none;rounded=0;orthogonalLoop=1;jettySize=auto;html=1;exitX=0.5;exitY=1;exitDx=0;exitDy=0;entryX=0.5;entryY=0;entryDx=0;entryDy=0;endArrow=none;endFill=0;" parent="QiW56zmOAPl6OWJs4tkQ-133" source="Q6NoitaBViCfW9eb-oas-161" target="Q6NoitaBViCfW9eb-oas-162" edge="1">
          <mxGeometry relative="1" as="geometry" />
        </mxCell>
        <mxCell id="Q6NoitaBViCfW9eb-oas-163" value="" style="rounded=0;whiteSpace=wrap;html=1;container=0;fillColor=#66FF66;" parent="QiW56zmOAPl6OWJs4tkQ-133" vertex="1">
          <mxGeometry x="239.5" y="356.3636363636363" width="30" height="30.545454545454543" as="geometry" />
        </mxCell>
        <mxCell id="Q6NoitaBViCfW9eb-oas-186" style="edgeStyle=none;rounded=0;orthogonalLoop=1;jettySize=auto;html=1;exitX=0.5;exitY=1;exitDx=0;exitDy=0;entryX=0.5;entryY=0;entryDx=0;entryDy=0;endArrow=none;endFill=0;" parent="QiW56zmOAPl6OWJs4tkQ-133" source="Q6NoitaBViCfW9eb-oas-162" target="Q6NoitaBViCfW9eb-oas-163" edge="1">
          <mxGeometry relative="1" as="geometry" />
        </mxCell>
        <mxCell id="Q6NoitaBViCfW9eb-oas-164" value="" style="rounded=0;whiteSpace=wrap;html=1;container=0;fillColor=#66FF66;" parent="QiW56zmOAPl6OWJs4tkQ-133" vertex="1">
          <mxGeometry x="239.5" y="407.27272727272725" width="30" height="30.545454545454543" as="geometry" />
        </mxCell>
        <mxCell id="Q6NoitaBViCfW9eb-oas-187" style="edgeStyle=none;rounded=0;orthogonalLoop=1;jettySize=auto;html=1;exitX=0.5;exitY=1;exitDx=0;exitDy=0;entryX=0.5;entryY=0;entryDx=0;entryDy=0;endArrow=none;endFill=0;" parent="QiW56zmOAPl6OWJs4tkQ-133" source="Q6NoitaBViCfW9eb-oas-163" target="Q6NoitaBViCfW9eb-oas-164" edge="1">
          <mxGeometry relative="1" as="geometry" />
        </mxCell>
        <mxCell id="Q6NoitaBViCfW9eb-oas-165" value="" style="rounded=0;whiteSpace=wrap;html=1;container=0;fillColor=#66FF66;" parent="QiW56zmOAPl6OWJs4tkQ-133" vertex="1">
          <mxGeometry x="239.5" y="509.09090909090907" width="30" height="30.545454545454543" as="geometry" />
        </mxCell>
        <mxCell id="Q6NoitaBViCfW9eb-oas-192" value="" style="shape=umlActor;verticalLabelPosition=bottom;verticalAlign=top;html=1;outlineConnect=0;container=0;fillColor=#000000;" parent="QiW56zmOAPl6OWJs4tkQ-133" vertex="1">
          <mxGeometry x="122" y="2.545454545454545" width="11.5" height="25.454545454545453" as="geometry" />
        </mxCell>
        <mxCell id="QiW56zmOAPl6OWJs4tkQ-5" value="" style="endArrow=classic;html=1;rounded=0;" parent="QiW56zmOAPl6OWJs4tkQ-133" edge="1">
          <mxGeometry width="50" height="50" relative="1" as="geometry">
            <mxPoint x="60.70999999999998" y="106.90909090909089" as="sourcePoint" />
            <mxPoint x="60.70999999999998" y="127.27272727272727" as="targetPoint" />
          </mxGeometry>
        </mxCell>
        <mxCell id="QiW56zmOAPl6OWJs4tkQ-6" value="" style="endArrow=classic;html=1;rounded=0;" parent="QiW56zmOAPl6OWJs4tkQ-133" edge="1">
          <mxGeometry width="50" height="50" relative="1" as="geometry">
            <mxPoint x="127.45999999999998" y="55.99999999999999" as="sourcePoint" />
            <mxPoint x="127.45999999999998" y="76.36363636363636" as="targetPoint" />
          </mxGeometry>
        </mxCell>
        <mxCell id="QiW56zmOAPl6OWJs4tkQ-7" value="" style="endArrow=classic;html=1;rounded=0;" parent="QiW56zmOAPl6OWJs4tkQ-133" edge="1">
          <mxGeometry width="50" height="50" relative="1" as="geometry">
            <mxPoint x="81" y="167.70472727272724" as="sourcePoint" />
            <mxPoint x="101" y="167.70472727272724" as="targetPoint" />
          </mxGeometry>
        </mxCell>
        <mxCell id="QiW56zmOAPl6OWJs4tkQ-8" value="" style="endArrow=classic;html=1;rounded=0;" parent="QiW56zmOAPl6OWJs4tkQ-133" edge="1">
          <mxGeometry width="50" height="50" relative="1" as="geometry">
            <mxPoint x="81" y="218.61381818181815" as="sourcePoint" />
            <mxPoint x="101" y="218.61381818181815" as="targetPoint" />
          </mxGeometry>
        </mxCell>
        <mxCell id="QiW56zmOAPl6OWJs4tkQ-9" value="" style="endArrow=classic;html=1;rounded=0;" parent="QiW56zmOAPl6OWJs4tkQ-133" edge="1">
          <mxGeometry width="50" height="50" relative="1" as="geometry">
            <mxPoint x="184.5" y="116.79563636363633" as="sourcePoint" />
            <mxPoint x="204.5" y="116.79563636363633" as="targetPoint" />
          </mxGeometry>
        </mxCell>
        <mxCell id="QiW56zmOAPl6OWJs4tkQ-10" value="" style="endArrow=classic;html=1;rounded=0;" parent="QiW56zmOAPl6OWJs4tkQ-133" edge="1">
          <mxGeometry width="50" height="50" relative="1" as="geometry">
            <mxPoint x="214.5" y="167.70472727272724" as="sourcePoint" />
            <mxPoint x="234.5" y="167.70472727272724" as="targetPoint" />
          </mxGeometry>
        </mxCell>
        <mxCell id="QiW56zmOAPl6OWJs4tkQ-11" value="" style="endArrow=classic;html=1;rounded=0;" parent="QiW56zmOAPl6OWJs4tkQ-133" edge="1">
          <mxGeometry width="50" height="50" relative="1" as="geometry">
            <mxPoint x="164.21000000000004" y="157.8181818181818" as="sourcePoint" />
            <mxPoint x="164.21000000000004" y="178.18181818181816" as="targetPoint" />
          </mxGeometry>
        </mxCell>
        <mxCell id="QiW56zmOAPl6OWJs4tkQ-12" value="" style="endArrow=classic;html=1;rounded=0;" parent="QiW56zmOAPl6OWJs4tkQ-133" edge="1">
          <mxGeometry width="50" height="50" relative="1" as="geometry">
            <mxPoint x="194.21000000000004" y="208.72727272727272" as="sourcePoint" />
            <mxPoint x="194.21000000000004" y="229.09090909090907" as="targetPoint" />
          </mxGeometry>
        </mxCell>
        <mxCell id="QiW56zmOAPl6OWJs4tkQ-13" value="" style="endArrow=classic;html=1;rounded=0;" parent="QiW56zmOAPl6OWJs4tkQ-133" edge="1">
          <mxGeometry width="50" height="50" relative="1" as="geometry">
            <mxPoint x="30.409999999999968" y="279.99999999999994" as="sourcePoint" />
            <mxPoint x="30.409999999999968" y="259.6363636363636" as="targetPoint" />
          </mxGeometry>
        </mxCell>
        <mxCell id="QiW56zmOAPl6OWJs4tkQ-14" value="" style="endArrow=classic;html=1;rounded=0;" parent="QiW56zmOAPl6OWJs4tkQ-133" edge="1">
          <mxGeometry width="50" height="50" relative="1" as="geometry">
            <mxPoint x="30.75999999999999" y="330.9090909090909" as="sourcePoint" />
            <mxPoint x="30.75999999999999" y="310.5454545454545" as="targetPoint" />
          </mxGeometry>
        </mxCell>
        <mxCell id="QiW56zmOAPl6OWJs4tkQ-15" value="" style="endArrow=classic;html=1;rounded=0;" parent="QiW56zmOAPl6OWJs4tkQ-133" edge="1">
          <mxGeometry width="50" height="50" relative="1" as="geometry">
            <mxPoint x="30.75999999999999" y="381.81818181818176" as="sourcePoint" />
            <mxPoint x="30.75999999999999" y="361.45454545454544" as="targetPoint" />
          </mxGeometry>
        </mxCell>
        <mxCell id="QiW56zmOAPl6OWJs4tkQ-16" value="" style="endArrow=classic;html=1;rounded=0;" parent="QiW56zmOAPl6OWJs4tkQ-133" edge="1">
          <mxGeometry width="50" height="50" relative="1" as="geometry">
            <mxPoint x="254" y="229.09090909090907" as="sourcePoint" />
            <mxPoint x="254" y="208.72727272727272" as="targetPoint" />
          </mxGeometry>
        </mxCell>
        <mxCell id="QiW56zmOAPl6OWJs4tkQ-17" value="" style="endArrow=classic;html=1;rounded=0;" parent="QiW56zmOAPl6OWJs4tkQ-133" edge="1">
          <mxGeometry width="50" height="50" relative="1" as="geometry">
            <mxPoint x="254" y="279.99999999999994" as="sourcePoint" />
            <mxPoint x="254" y="259.6363636363636" as="targetPoint" />
          </mxGeometry>
        </mxCell>
        <mxCell id="QiW56zmOAPl6OWJs4tkQ-18" value="" style="endArrow=classic;html=1;rounded=0;" parent="QiW56zmOAPl6OWJs4tkQ-133" edge="1">
          <mxGeometry width="50" height="50" relative="1" as="geometry">
            <mxPoint x="253" y="330.9090909090909" as="sourcePoint" />
            <mxPoint x="253" y="310.5454545454545" as="targetPoint" />
          </mxGeometry>
        </mxCell>
        <mxCell id="QiW56zmOAPl6OWJs4tkQ-19" value="" style="endArrow=classic;html=1;rounded=0;" parent="QiW56zmOAPl6OWJs4tkQ-133" edge="1">
          <mxGeometry width="50" height="50" relative="1" as="geometry">
            <mxPoint x="41" y="167.65381818181817" as="sourcePoint" />
            <mxPoint x="21" y="167.65381818181817" as="targetPoint" />
          </mxGeometry>
        </mxCell>
        <mxCell id="QiW56zmOAPl6OWJs4tkQ-20" value="" style="endArrow=classic;html=1;rounded=0;" parent="QiW56zmOAPl6OWJs4tkQ-133" edge="1">
          <mxGeometry width="50" height="50" relative="1" as="geometry">
            <mxPoint x="41" y="218.56290909090907" as="sourcePoint" />
            <mxPoint x="21" y="218.56290909090907" as="targetPoint" />
          </mxGeometry>
        </mxCell>
        <mxCell id="QiW56zmOAPl6OWJs4tkQ-21" value="" style="endArrow=classic;html=1;rounded=0;" parent="QiW56zmOAPl6OWJs4tkQ-133" edge="1">
          <mxGeometry width="50" height="50" relative="1" as="geometry">
            <mxPoint x="264.5" y="371.29018181818174" as="sourcePoint" />
            <mxPoint x="244.5" y="371.29018181818174" as="targetPoint" />
          </mxGeometry>
        </mxCell>
        <mxCell id="QiW56zmOAPl6OWJs4tkQ-22" value="" style="endArrow=classic;html=1;rounded=0;" parent="QiW56zmOAPl6OWJs4tkQ-133" edge="1">
          <mxGeometry width="50" height="50" relative="1" as="geometry">
            <mxPoint x="264.5" y="422.19927272727267" as="sourcePoint" />
            <mxPoint x="244.5" y="422.19927272727267" as="targetPoint" />
          </mxGeometry>
        </mxCell>
        <mxCell id="QiW56zmOAPl6OWJs4tkQ-23" value="" style="verticalLabelPosition=bottom;verticalAlign=top;html=1;shape=mxgraph.basic.star;fillColor=#FFFF33;" parent="QiW56zmOAPl6OWJs4tkQ-133" vertex="1">
          <mxGeometry x="244.5" y="514.1818181818181" width="20" height="20.36363636363636" as="geometry" />
        </mxCell>
        <mxCell id="QiW56zmOAPl6OWJs4tkQ-24" value="5" style="text;html=1;align=center;verticalAlign=middle;whiteSpace=wrap;rounded=0;" parent="QiW56zmOAPl6OWJs4tkQ-133" vertex="1">
          <mxGeometry x="96.75" y="55.99999999999999" width="16" height="20.36363636363636" as="geometry" />
        </mxCell>
        <mxCell id="QiW56zmOAPl6OWJs4tkQ-27" value="5" style="text;html=1;align=center;verticalAlign=middle;whiteSpace=wrap;rounded=0;" parent="QiW56zmOAPl6OWJs4tkQ-133" vertex="1">
          <mxGeometry x="30" y="106.90909090909089" width="16" height="20.36363636363636" as="geometry" />
        </mxCell>
        <mxCell id="QiW56zmOAPl6OWJs4tkQ-28" value="5" style="text;html=1;align=center;verticalAlign=middle;whiteSpace=wrap;rounded=0;" parent="QiW56zmOAPl6OWJs4tkQ-133" vertex="1">
          <mxGeometry y="259.6363636363636" width="16" height="20.36363636363636" as="geometry" />
        </mxCell>
        <mxCell id="QiW56zmOAPl6OWJs4tkQ-29" value="5" style="text;html=1;align=center;verticalAlign=middle;whiteSpace=wrap;rounded=0;" parent="QiW56zmOAPl6OWJs4tkQ-133" vertex="1">
          <mxGeometry y="310.5454545454545" width="16" height="20.36363636363636" as="geometry" />
        </mxCell>
        <mxCell id="QiW56zmOAPl6OWJs4tkQ-30" value="5" style="text;html=1;align=center;verticalAlign=middle;whiteSpace=wrap;rounded=0;" parent="QiW56zmOAPl6OWJs4tkQ-133" vertex="1">
          <mxGeometry y="361.45454545454544" width="16" height="20.36363636363636" as="geometry" />
        </mxCell>
        <mxCell id="QiW56zmOAPl6OWJs4tkQ-31" value="5" style="text;html=1;align=center;verticalAlign=middle;whiteSpace=wrap;rounded=0;" parent="QiW56zmOAPl6OWJs4tkQ-133" vertex="1">
          <mxGeometry x="133.5" y="157.8181818181818" width="16" height="20.36363636363636" as="geometry" />
        </mxCell>
        <mxCell id="QiW56zmOAPl6OWJs4tkQ-32" value="5" style="text;html=1;align=center;verticalAlign=middle;whiteSpace=wrap;rounded=0;" parent="QiW56zmOAPl6OWJs4tkQ-133" vertex="1">
          <mxGeometry x="163.5" y="208.72727272727272" width="16" height="20.36363636363636" as="geometry" />
        </mxCell>
        <mxCell id="QiW56zmOAPl6OWJs4tkQ-33" value="5" style="text;html=1;align=center;verticalAlign=middle;whiteSpace=wrap;rounded=0;" parent="QiW56zmOAPl6OWJs4tkQ-133" vertex="1">
          <mxGeometry x="223.5" y="208.72727272727272" width="16" height="20.36363636363636" as="geometry" />
        </mxCell>
        <mxCell id="QiW56zmOAPl6OWJs4tkQ-34" value="5" style="text;html=1;align=center;verticalAlign=middle;whiteSpace=wrap;rounded=0;" parent="QiW56zmOAPl6OWJs4tkQ-133" vertex="1">
          <mxGeometry x="223.5" y="259.6363636363636" width="16" height="20.36363636363636" as="geometry" />
        </mxCell>
        <mxCell id="QiW56zmOAPl6OWJs4tkQ-35" value="5" style="text;html=1;align=center;verticalAlign=middle;whiteSpace=wrap;rounded=0;" parent="QiW56zmOAPl6OWJs4tkQ-133" vertex="1">
          <mxGeometry x="223.5" y="310.5454545454545" width="16" height="20.36363636363636" as="geometry" />
        </mxCell>
        <mxCell id="QiW56zmOAPl6OWJs4tkQ-36" value="1" style="text;html=1;align=center;verticalAlign=middle;whiteSpace=wrap;rounded=0;" parent="QiW56zmOAPl6OWJs4tkQ-133" vertex="1">
          <mxGeometry y="157.8181818181818" width="16" height="20.36363636363636" as="geometry" />
        </mxCell>
        <mxCell id="QiW56zmOAPl6OWJs4tkQ-37" value="1" style="text;html=1;align=center;verticalAlign=middle;whiteSpace=wrap;rounded=0;" parent="QiW56zmOAPl6OWJs4tkQ-133" vertex="1">
          <mxGeometry y="208.72727272727272" width="16" height="20.36363636363636" as="geometry" />
        </mxCell>
        <mxCell id="QiW56zmOAPl6OWJs4tkQ-38" value="1" style="text;html=1;align=center;verticalAlign=middle;whiteSpace=wrap;rounded=0;" parent="QiW56zmOAPl6OWJs4tkQ-133" vertex="1">
          <mxGeometry x="60" y="157.8181818181818" width="16" height="20.36363636363636" as="geometry" />
        </mxCell>
        <mxCell id="QiW56zmOAPl6OWJs4tkQ-39" value="1" style="text;html=1;align=center;verticalAlign=middle;whiteSpace=wrap;rounded=0;" parent="QiW56zmOAPl6OWJs4tkQ-133" vertex="1">
          <mxGeometry x="60" y="208.72727272727272" width="16" height="20.36363636363636" as="geometry" />
        </mxCell>
        <mxCell id="QiW56zmOAPl6OWJs4tkQ-40" value="1" style="text;html=1;align=center;verticalAlign=middle;whiteSpace=wrap;rounded=0;" parent="QiW56zmOAPl6OWJs4tkQ-133" vertex="1">
          <mxGeometry x="163.5" y="106.90909090909089" width="16" height="20.36363636363636" as="geometry" />
        </mxCell>
        <mxCell id="QiW56zmOAPl6OWJs4tkQ-41" value="1" style="text;html=1;align=center;verticalAlign=middle;whiteSpace=wrap;rounded=0;" parent="QiW56zmOAPl6OWJs4tkQ-133" vertex="1">
          <mxGeometry x="193.5" y="157.8181818181818" width="16" height="20.36363636363636" as="geometry" />
        </mxCell>
        <mxCell id="QiW56zmOAPl6OWJs4tkQ-42" value="1" style="text;html=1;align=center;verticalAlign=middle;whiteSpace=wrap;rounded=0;" parent="QiW56zmOAPl6OWJs4tkQ-133" vertex="1">
          <mxGeometry x="223.5" y="361.45454545454544" width="16" height="20.36363636363636" as="geometry" />
        </mxCell>
        <mxCell id="QiW56zmOAPl6OWJs4tkQ-43" value="1" style="text;html=1;align=center;verticalAlign=middle;whiteSpace=wrap;rounded=0;" parent="QiW56zmOAPl6OWJs4tkQ-133" vertex="1">
          <mxGeometry x="223.5" y="412.3636363636363" width="16" height="20.36363636363636" as="geometry" />
        </mxCell>
        <mxCell id="QiW56zmOAPl6OWJs4tkQ-44" value="26" style="text;html=1;align=center;verticalAlign=middle;whiteSpace=wrap;rounded=0;" parent="QiW56zmOAPl6OWJs4tkQ-133" vertex="1">
          <mxGeometry x="219.5" y="514.1818181818181" width="20" height="20.36363636363636" as="geometry" />
        </mxCell>
        <mxCell id="QiW56zmOAPl6OWJs4tkQ-45" value="A" style="text;html=1;align=center;verticalAlign=middle;whiteSpace=wrap;rounded=0;" parent="QiW56zmOAPl6OWJs4tkQ-133" vertex="1">
          <mxGeometry x="269.5" y="514.1818181818181" width="16" height="20.36363636363636" as="geometry" />
        </mxCell>
        <mxCell id="QiW56zmOAPl6OWJs4tkQ-47" value="C" style="text;html=1;align=center;verticalAlign=middle;whiteSpace=wrap;rounded=0;" parent="QiW56zmOAPl6OWJs4tkQ-133" vertex="1">
          <mxGeometry x="269.5" y="412.3636363636363" width="16" height="20.36363636363636" as="geometry" />
        </mxCell>
        <mxCell id="QiW56zmOAPl6OWJs4tkQ-48" value="D" style="text;html=1;align=center;verticalAlign=middle;whiteSpace=wrap;rounded=0;" parent="QiW56zmOAPl6OWJs4tkQ-133" vertex="1">
          <mxGeometry x="269.5" y="361.45454545454544" width="16" height="20.36363636363636" as="geometry" />
        </mxCell>
        <mxCell id="QiW56zmOAPl6OWJs4tkQ-49" value="E" style="text;html=1;align=center;verticalAlign=middle;whiteSpace=wrap;rounded=0;" parent="QiW56zmOAPl6OWJs4tkQ-133" vertex="1">
          <mxGeometry x="269.5" y="310.5454545454545" width="16" height="20.36363636363636" as="geometry" />
        </mxCell>
        <mxCell id="QiW56zmOAPl6OWJs4tkQ-50" value="G" style="text;html=1;align=center;verticalAlign=middle;whiteSpace=wrap;rounded=0;" parent="QiW56zmOAPl6OWJs4tkQ-133" vertex="1">
          <mxGeometry x="269.5" y="259.6363636363636" width="16" height="20.36363636363636" as="geometry" />
        </mxCell>
        <mxCell id="QiW56zmOAPl6OWJs4tkQ-59" style="edgeStyle=none;rounded=0;orthogonalLoop=1;jettySize=auto;html=1;exitX=0.5;exitY=1;exitDx=0;exitDy=0;entryX=0.5;entryY=0;entryDx=0;entryDy=0;endArrow=none;endFill=0;" parent="QiW56zmOAPl6OWJs4tkQ-133" source="QiW56zmOAPl6OWJs4tkQ-55" target="Q6NoitaBViCfW9eb-oas-165" edge="1">
          <mxGeometry relative="1" as="geometry" />
        </mxCell>
        <mxCell id="QiW56zmOAPl6OWJs4tkQ-55" value="" style="rounded=0;whiteSpace=wrap;html=1;container=0;fillColor=#66FF66;" parent="QiW56zmOAPl6OWJs4tkQ-133" vertex="1">
          <mxGeometry x="239.5" y="458.18181818181813" width="30" height="30.545454545454543" as="geometry" />
        </mxCell>
        <mxCell id="QiW56zmOAPl6OWJs4tkQ-60" style="edgeStyle=none;rounded=0;orthogonalLoop=1;jettySize=auto;html=1;exitX=0.5;exitY=1;exitDx=0;exitDy=0;entryX=0.5;entryY=0;entryDx=0;entryDy=0;endArrow=none;endFill=0;" parent="QiW56zmOAPl6OWJs4tkQ-133" source="Q6NoitaBViCfW9eb-oas-164" target="QiW56zmOAPl6OWJs4tkQ-55" edge="1">
          <mxGeometry relative="1" as="geometry" />
        </mxCell>
        <mxCell id="QiW56zmOAPl6OWJs4tkQ-56" value="" style="endArrow=classic;html=1;rounded=0;" parent="QiW56zmOAPl6OWJs4tkQ-133" edge="1">
          <mxGeometry width="50" height="50" relative="1" as="geometry">
            <mxPoint x="264.5" y="473.10836363636355" as="sourcePoint" />
            <mxPoint x="244.5" y="473.10836363636355" as="targetPoint" />
          </mxGeometry>
        </mxCell>
        <mxCell id="QiW56zmOAPl6OWJs4tkQ-57" value="1" style="text;html=1;align=center;verticalAlign=middle;whiteSpace=wrap;rounded=0;" parent="QiW56zmOAPl6OWJs4tkQ-133" vertex="1">
          <mxGeometry x="223.5" y="463.27272727272725" width="16" height="20.36363636363636" as="geometry" />
        </mxCell>
        <mxCell id="QiW56zmOAPl6OWJs4tkQ-58" value="B" style="text;html=1;align=center;verticalAlign=middle;whiteSpace=wrap;rounded=0;" parent="QiW56zmOAPl6OWJs4tkQ-133" vertex="1">
          <mxGeometry x="269.5" y="463.27272727272725" width="16" height="20.36363636363636" as="geometry" />
        </mxCell>
        <mxCell id="QiW56zmOAPl6OWJs4tkQ-65" value="J" style="text;html=1;align=center;verticalAlign=middle;whiteSpace=wrap;rounded=0;" parent="QiW56zmOAPl6OWJs4tkQ-133" vertex="1">
          <mxGeometry x="269.5" y="208.72727272727272" width="16" height="20.36363636363636" as="geometry" />
        </mxCell>
        <mxCell id="QiW56zmOAPl6OWJs4tkQ-66" value="F" style="text;html=1;align=center;verticalAlign=middle;whiteSpace=wrap;rounded=0;" parent="QiW56zmOAPl6OWJs4tkQ-133" vertex="1">
          <mxGeometry x="46" y="361.45454545454544" width="16" height="20.36363636363636" as="geometry" />
        </mxCell>
        <mxCell id="QiW56zmOAPl6OWJs4tkQ-67" value="H" style="text;html=1;align=center;verticalAlign=middle;whiteSpace=wrap;rounded=0;" parent="QiW56zmOAPl6OWJs4tkQ-133" vertex="1">
          <mxGeometry x="46" y="310.5454545454545" width="16" height="20.36363636363636" as="geometry" />
        </mxCell>
        <mxCell id="QiW56zmOAPl6OWJs4tkQ-68" value="K" style="text;html=1;align=center;verticalAlign=middle;whiteSpace=wrap;rounded=0;" parent="QiW56zmOAPl6OWJs4tkQ-133" vertex="1">
          <mxGeometry x="46" y="259.6363636363636" width="16" height="20.36363636363636" as="geometry" />
        </mxCell>
        <mxCell id="QiW56zmOAPl6OWJs4tkQ-69" value="O" style="text;html=1;align=center;verticalAlign=middle;whiteSpace=wrap;rounded=0;" parent="QiW56zmOAPl6OWJs4tkQ-133" vertex="1">
          <mxGeometry x="46" y="208.72727272727272" width="16" height="20.36363636363636" as="geometry" />
        </mxCell>
        <mxCell id="QiW56zmOAPl6OWJs4tkQ-70" value="P" style="text;html=1;align=center;verticalAlign=middle;whiteSpace=wrap;rounded=0;" parent="QiW56zmOAPl6OWJs4tkQ-133" vertex="1">
          <mxGeometry x="46" y="157.8181818181818" width="16" height="20.36363636363636" as="geometry" />
        </mxCell>
        <mxCell id="QiW56zmOAPl6OWJs4tkQ-71" value="S" style="text;html=1;align=center;verticalAlign=middle;whiteSpace=wrap;rounded=0;" parent="QiW56zmOAPl6OWJs4tkQ-133" vertex="1">
          <mxGeometry x="106" y="208.72727272727272" width="16" height="20.36363636363636" as="geometry" />
        </mxCell>
        <mxCell id="QiW56zmOAPl6OWJs4tkQ-72" value="R" style="text;html=1;align=center;verticalAlign=middle;whiteSpace=wrap;rounded=0;" parent="QiW56zmOAPl6OWJs4tkQ-133" vertex="1">
          <mxGeometry x="106" y="157.8181818181818" width="16" height="20.36363636363636" as="geometry" />
        </mxCell>
        <mxCell id="QiW56zmOAPl6OWJs4tkQ-73" value="Q" style="text;html=1;align=center;verticalAlign=middle;whiteSpace=wrap;rounded=0;" parent="QiW56zmOAPl6OWJs4tkQ-133" vertex="1">
          <mxGeometry x="76" y="106.90909090909089" width="16" height="20.36363636363636" as="geometry" />
        </mxCell>
        <mxCell id="QiW56zmOAPl6OWJs4tkQ-74" value="L" style="text;html=1;align=center;verticalAlign=middle;whiteSpace=wrap;rounded=0;" parent="QiW56zmOAPl6OWJs4tkQ-133" vertex="1">
          <mxGeometry x="142.75" y="55.99999999999999" width="16" height="20.36363636363636" as="geometry" />
        </mxCell>
        <mxCell id="QiW56zmOAPl6OWJs4tkQ-75" value="I" style="text;html=1;align=center;verticalAlign=middle;whiteSpace=wrap;rounded=0;" parent="QiW56zmOAPl6OWJs4tkQ-133" vertex="1">
          <mxGeometry x="142.75" y="5.09090909090909" width="16" height="20.36363636363636" as="geometry" />
        </mxCell>
        <mxCell id="QiW56zmOAPl6OWJs4tkQ-76" value="M" style="text;html=1;align=center;verticalAlign=middle;whiteSpace=wrap;rounded=0;" parent="QiW56zmOAPl6OWJs4tkQ-133" vertex="1">
          <mxGeometry x="209.5" y="106.90909090909089" width="16" height="20.36363636363636" as="geometry" />
        </mxCell>
        <mxCell id="QiW56zmOAPl6OWJs4tkQ-77" value="R" style="text;html=1;align=center;verticalAlign=middle;whiteSpace=wrap;rounded=0;" parent="QiW56zmOAPl6OWJs4tkQ-133" vertex="1">
          <mxGeometry x="179.5" y="157.8181818181818" width="16" height="20.36363636363636" as="geometry" />
        </mxCell>
        <mxCell id="QiW56zmOAPl6OWJs4tkQ-78" value="N" style="text;html=1;align=center;verticalAlign=middle;whiteSpace=wrap;rounded=0;" parent="QiW56zmOAPl6OWJs4tkQ-133" vertex="1">
          <mxGeometry x="239.5" y="157.8181818181818" width="16" height="20.36363636363636" as="geometry" />
        </mxCell>
        <mxCell id="QiW56zmOAPl6OWJs4tkQ-79" value="S" style="text;html=1;align=center;verticalAlign=middle;whiteSpace=wrap;rounded=0;" parent="QiW56zmOAPl6OWJs4tkQ-133" vertex="1">
          <mxGeometry x="209.5" y="208.72727272727272" width="16" height="20.36363636363636" as="geometry" />
        </mxCell>
        <mxCell id="q1EjDRpP6pmIb6UxhyAx-2" value="" style="group" parent="1" vertex="1" connectable="0">
          <mxGeometry x="370" y="530" width="300" height="70" as="geometry" />
        </mxCell>
        <mxCell id="QiW56zmOAPl6OWJs4tkQ-100" value="" style="rounded=0;whiteSpace=wrap;html=1;container=0;" parent="q1EjDRpP6pmIb6UxhyAx-2" vertex="1">
          <mxGeometry x="150" width="150" height="70" as="geometry" />
        </mxCell>
        <mxCell id="QiW56zmOAPl6OWJs4tkQ-101" value="" style="endArrow=none;html=1;rounded=0;entryX=1;entryY=0.5;entryDx=0;entryDy=0;exitX=0;exitY=0.5;exitDx=0;exitDy=0;" parent="q1EjDRpP6pmIb6UxhyAx-2" source="QiW56zmOAPl6OWJs4tkQ-100" target="QiW56zmOAPl6OWJs4tkQ-100" edge="1">
          <mxGeometry width="50" height="50" relative="1" as="geometry">
            <mxPoint x="237.49999999999994" y="80.76923076923076" as="sourcePoint" />
            <mxPoint x="300" y="26.923076923076923" as="targetPoint" />
          </mxGeometry>
        </mxCell>
        <mxCell id="QiW56zmOAPl6OWJs4tkQ-85" value="&lt;font style=&quot;font-size: 12px;&quot;&gt;F { &lt;sub style=&quot;&quot;&gt;g&lt;/sub&gt;N&lt;sub style=&quot;&quot;&gt;h&lt;/sub&gt;&lt;/font&gt;" style="text;html=1;align=center;verticalAlign=middle;whiteSpace=wrap;rounded=0;container=0;" parent="q1EjDRpP6pmIb6UxhyAx-2" vertex="1">
          <mxGeometry x="181.24999999999994" y="37.69230769230769" width="87.49999999999999" height="32.30769230769231" as="geometry" />
        </mxCell>
        <mxCell id="QiW56zmOAPl6OWJs4tkQ-91" style="edgeStyle=none;rounded=0;orthogonalLoop=1;jettySize=auto;html=1;entryX=0.5;entryY=1;entryDx=0;entryDy=0;" parent="q1EjDRpP6pmIb6UxhyAx-2" edge="1">
          <mxGeometry relative="1" as="geometry">
            <mxPoint x="231.24999999999997" y="70" as="sourcePoint" />
            <mxPoint x="231.24999999999997" y="70" as="targetPoint" />
          </mxGeometry>
        </mxCell>
        <mxCell id="QiW56zmOAPl6OWJs4tkQ-96" value="" style="rounded=0;whiteSpace=wrap;html=1;container=0;" parent="q1EjDRpP6pmIb6UxhyAx-2" vertex="1">
          <mxGeometry width="150" height="70" as="geometry" />
        </mxCell>
        <mxCell id="QiW56zmOAPl6OWJs4tkQ-88" value="&lt;font style=&quot;&quot;&gt;&lt;font style=&quot;font-size: 12px;&quot;&gt;h = distancia Manhattan&lt;br&gt;g = suma hasta N&lt;br&gt;f = g + h&lt;/font&gt;&lt;br&gt;&lt;/font&gt;" style="text;html=1;align=center;verticalAlign=middle;whiteSpace=wrap;rounded=0;container=0;" parent="q1EjDRpP6pmIb6UxhyAx-2" vertex="1">
          <mxGeometry y="2.916666666666646" width="150" height="64.16666666666666" as="geometry" />
        </mxCell>
        <mxCell id="QiW56zmOAPl6OWJs4tkQ-80" value="&lt;font style=&quot;font-size: 12px;&quot;&gt;C { N&lt;sup style=&quot;&quot;&gt;g&lt;/sup&gt;&lt;sub style=&quot;&quot;&gt;Nodo anterior&lt;/sub&gt;&lt;/font&gt;" style="text;html=1;align=center;verticalAlign=middle;whiteSpace=wrap;rounded=0;container=0;" parent="q1EjDRpP6pmIb6UxhyAx-2" vertex="1">
          <mxGeometry x="150" width="150" height="32.30769230769231" as="geometry" />
        </mxCell>
        <mxCell id="q1EjDRpP6pmIb6UxhyAx-3" value="&lt;font style=&quot;&quot;&gt;&lt;font style=&quot;font-size: 12px;&quot;&gt;C { I&lt;sup style=&quot;&quot;&gt;0&lt;/sup&gt;&lt;sub style=&quot;&quot;&gt;0&lt;/sub&gt;&amp;nbsp;| L&lt;sup style=&quot;&quot;&gt;5&lt;/sup&gt;&lt;sub style=&quot;&quot;&gt;I&lt;/sub&gt;&amp;nbsp;| M&lt;sup style=&quot;&quot;&gt;6&lt;/sup&gt;&lt;sub style=&quot;&quot;&gt;L&lt;/sub&gt; | N&lt;sup style=&quot;&quot;&gt;7&lt;/sup&gt;&lt;sub style=&quot;&quot;&gt;M&lt;/sub&gt; | Q&lt;sup style=&quot;&quot;&gt;10&lt;/sup&gt;&lt;sub style=&quot;&quot;&gt;L&lt;/sub&gt; | P&lt;sup style=&quot;&quot;&gt;11&lt;/sup&gt;&lt;sub style=&quot;&quot;&gt;Q&lt;/sub&gt; | O&lt;sup style=&quot;&quot;&gt;12&lt;/sup&gt;&lt;sub style=&quot;&quot;&gt;P&lt;/sub&gt; | R&lt;sup style=&quot;&quot;&gt;11&lt;/sup&gt;&lt;sub style=&quot;&quot;&gt;Q&lt;/sub&gt; | J&lt;sup style=&quot;&quot;&gt;12&lt;/sup&gt;&lt;sub style=&quot;&quot;&gt;N&lt;/sub&gt; | S&lt;sup style=&quot;&quot;&gt;12&lt;/sup&gt;&lt;sub style=&quot;&quot;&gt;R&lt;/sub&gt; | K&lt;sup style=&quot;&quot;&gt;17&lt;/sup&gt;&lt;sub style=&quot;&quot;&gt;O&lt;/sub&gt; | G&lt;sup style=&quot;&quot;&gt;17&lt;/sup&gt;&lt;sub style=&quot;&quot;&gt;J&lt;/sub&gt; | H&lt;sup style=&quot;&quot;&gt;22&lt;/sup&gt;&lt;sub style=&quot;&quot;&gt;K&lt;/sub&gt; | E&lt;sup style=&quot;&quot;&gt;22&lt;/sup&gt;&lt;sub style=&quot;&quot;&gt;G&lt;/sub&gt; | D&lt;sup style=&quot;&quot;&gt;23&lt;/sup&gt;&lt;sub style=&quot;&quot;&gt;E&lt;/sub&gt; | C&lt;sup style=&quot;&quot;&gt;24&lt;/sup&gt;&lt;sub style=&quot;&quot;&gt;D&lt;/sub&gt; | B&lt;sup style=&quot;&quot;&gt;25&lt;/sup&gt;&lt;sub style=&quot;&quot;&gt;C&lt;/sub&gt; | A&lt;sup style=&quot;&quot;&gt;26&lt;/sup&gt;&lt;sub style=&quot;&quot;&gt;B&lt;/sub&gt;&lt;br&gt;&lt;br&gt;F { &lt;sub style=&quot;&quot;&gt;5&lt;/sub&gt;L&lt;sub style=&quot;&quot;&gt;5&lt;/sub&gt;&lt;sup style=&quot;&quot;&gt;10&lt;/sup&gt; | &lt;sub style=&quot;&quot;&gt;10&lt;/sub&gt;Q&lt;sub style=&quot;&quot;&gt;6&lt;/sub&gt;&lt;sup style=&quot;&quot;&gt;16&lt;/sup&gt; | &lt;sub style=&quot;&quot;&gt;6&lt;/sub&gt;M&lt;sub style=&quot;&quot;&gt;6&lt;/sub&gt;&lt;sup style=&quot;&quot;&gt;12&lt;/sup&gt; | &lt;sub style=&quot;&quot;&gt;11&lt;/sub&gt;R&lt;sub style=&quot;&quot;&gt;7&lt;/sub&gt;&lt;sup style=&quot;&quot;&gt;18&lt;/sup&gt; | &lt;sub style=&quot;&quot;&gt;7&lt;/sub&gt;N&lt;sub style=&quot;&quot;&gt;7&lt;/sub&gt;&lt;sup style=&quot;&quot;&gt;14&lt;/sup&gt; | &lt;sub style=&quot;&quot;&gt;12&lt;/sub&gt;S&lt;sub style=&quot;&quot;&gt;8&lt;/sub&gt;&lt;sup style=&quot;&quot;&gt;20&lt;/sup&gt; | &lt;sub style=&quot;&quot;&gt;12&lt;/sub&gt;J&lt;sub style=&quot;&quot;&gt;6&lt;/sub&gt;&lt;sup style=&quot;&quot;&gt;18&lt;/sup&gt; | &lt;sub style=&quot;&quot;&gt;11&lt;/sub&gt;P&lt;sub style=&quot;&quot;&gt;5&lt;/sub&gt;&lt;sup style=&quot;&quot;&gt;16&lt;/sup&gt; | &lt;sub style=&quot;&quot;&gt;11&lt;/sub&gt;R&lt;sub style=&quot;&quot;&gt;7&lt;/sub&gt;&lt;sup style=&quot;&quot;&gt;18&lt;/sup&gt; | &lt;sub style=&quot;&quot;&gt;12&lt;/sub&gt;O&lt;sub style=&quot;&quot;&gt;4&lt;/sub&gt;&lt;sup style=&quot;&quot;&gt;16&lt;/sup&gt; | &lt;sub style=&quot;&quot;&gt;17&lt;/sub&gt;K&lt;sub style=&quot;&quot;&gt;3&lt;/sub&gt;&lt;sup style=&quot;&quot;&gt;20&lt;/sup&gt; | &lt;sub style=&quot;&quot;&gt;12&lt;/sub&gt;S&lt;sub style=&quot;&quot;&gt;8&lt;/sub&gt;&lt;sup style=&quot;&quot;&gt;20&lt;/sup&gt; | &lt;sub style=&quot;&quot;&gt;17&lt;/sub&gt;G&lt;sub style=&quot;&quot;&gt;5&lt;/sub&gt;&lt;sup style=&quot;&quot;&gt;22&lt;/sup&gt; | &lt;sub style=&quot;&quot;&gt;22&lt;/sub&gt;H&lt;sub style=&quot;&quot;&gt;2&lt;/sub&gt;&lt;sup style=&quot;&quot;&gt;24&lt;/sup&gt; | &lt;sub style=&quot;&quot;&gt;22&lt;/sub&gt;E&lt;sub style=&quot;&quot;&gt;4&lt;/sub&gt;&lt;sup style=&quot;&quot;&gt;26&lt;/sup&gt; | &lt;sub style=&quot;&quot;&gt;27&lt;/sub&gt;F&lt;sub style=&quot;&quot;&gt;1&lt;/sub&gt; | &lt;sub style=&quot;&quot;&gt;23&lt;/sub&gt;D&lt;sub style=&quot;&quot;&gt;3&lt;/sub&gt;&lt;sup style=&quot;&quot;&gt;26&lt;/sup&gt; | &lt;sub style=&quot;&quot;&gt;24&lt;/sub&gt;C&lt;sub style=&quot;&quot;&gt;2&lt;/sub&gt;&lt;sup style=&quot;&quot;&gt;26&lt;/sup&gt; | &lt;sub style=&quot;&quot;&gt;25&lt;/sub&gt;B&lt;sub style=&quot;&quot;&gt;1&lt;/sub&gt;&lt;sup style=&quot;&quot;&gt;26&lt;/sup&gt; | &lt;sub style=&quot;&quot;&gt;26&lt;/sub&gt;A&lt;sub style=&quot;&quot;&gt;0&lt;/sub&gt;&lt;sup style=&quot;&quot;&gt;26&lt;/sup&gt;&lt;/font&gt;&lt;br&gt;&lt;/font&gt;" style="text;html=1;strokeColor=default;fillColor=default;align=center;verticalAlign=middle;whiteSpace=wrap;rounded=0;" parent="1" vertex="1">
          <mxGeometry x="40" y="630" width="920" height="70" as="geometry" />
        </mxCell>
      </root>
    </mxGraphModel>
  </diagram>
</mxfile>
